<?xml version="1.0" encoding="utf-8"?>
<!-- Generator: Adobe Illustrator 23.0.0, SVG Export Plug-In . SVG Version: 6.00 Build 0)  -->
<svg version="1.1" id="图层_1" xmlns="http://www.w3.org/2000/svg" xmlns:xlink="http://www.w3.org/1999/xlink" x="0px" y="0px"
	 viewBox="0 0 6 8" style="enable-background:new 0 0 6 8;" xml:space="preserve">
<style type="text/css">
	.st0{fill-rule:evenodd;clip-rule:evenodd;fill:#999999;}
</style>
<path id="arrow" class="st0" d="M0.7,7L4,4L0.7,1l0,0C0.6,0.9,0.5,0.7,0.5,0.6C0.5,0.2,0.8,0,1.1,0c0.2,0,0.3,0.1,0.4,0.2l0,0
	l3.8,3.4l0,0C5.4,3.7,5.5,3.8,5.5,4l0,0c0,0.2-0.1,0.3-0.2,0.4l0,0L1.6,7.8l0,0C1.4,7.9,1.3,8,1.1,8C0.8,8,0.5,7.8,0.5,7.4
	C0.5,7.3,0.6,7.1,0.7,7z"/>
</svg>
