<svg id="wrong" xmlns="http://www.w3.org/2000/svg" width="20" height="20" viewBox="0 0 20 20">
  <defs>
    <style>
      .cls-1 {
        fill: #f81d22;
      }

      .cls-1, .cls-2 {
        fill-rule: evenodd;
      }

      .cls-2 {
        fill: #fff;
      }
    </style>
  </defs>
  <path id="形状_546_拷贝" data-name="形状 546 拷贝" class="cls-1" d="M19.236,6.171A10,10,0,0,0,.785,6.1,10,10,0,0,0,19.21,13.889,10.014,10.014,0,0,0,19.236,6.171ZM11.464,10l2.452-2.455a0.261,0.261,0,0,0,0-.37L12.8,6.067a0.263,0.263,0,0,0-.371,0L9.98,8.521,7.551,6.1a0.262,0.262,0,0,0-.371,0L6.067,7.212a0.261,0.261,0,0,0,0,.37L8.5,10,6.067,12.439a0.261,0.261,0,0,0,0,.37L7.18,13.916a0.262,0.262,0,0,0,.371,0L9.984,11.48l2.448,2.436a0.262,0.262,0,0,0,.371,0l1.113-1.108a0.261,0.261,0,0,0,0-.37Zm0,0"/>
  <path id="形状_546_拷贝_2" data-name="形状 546 拷贝 2" class="cls-2" d="M11.464,10l2.452-2.455a0.261,0.261,0,0,0,0-.37L12.8,6.067a0.263,0.263,0,0,0-.371,0L9.98,8.521,7.551,6.1a0.262,0.262,0,0,0-.371,0L6.067,7.212a0.261,0.261,0,0,0,0,.37L8.5,10,6.067,12.439a0.261,0.261,0,0,0,0,.37L7.18,13.916a0.262,0.262,0,0,0,.371,0L9.984,11.48l2.448,2.436a0.262,0.262,0,0,0,.371,0l1.113-1.108a0.261,0.261,0,0,0,0-.37Zm0,0"/>
</svg>
