<?xml version="1.0" encoding="utf-8"?>
<!-- Generator: Adobe Illustrator 23.0.0, SVG Export Plug-In . SVG Version: 6.00 Build 0)  -->
<svg version="1.1" id="图层_1" xmlns="http://www.w3.org/2000/svg" xmlns:xlink="http://www.w3.org/1999/xlink" x="0px" y="0px"
	 viewBox="0 0 14 14" style="enable-background:new 0 0 14 14;" xml:space="preserve">
<style type="text/css">
	.st0{fill-rule:evenodd;clip-rule:evenodd;fill:#333333;}
</style>
<path id="订单管理" class="st0" d="M11.565,13.522h-9.13c-1.078-0.001-1.951-0.875-1.95-1.952c0-0.001,0-0.003,0-0.004V1.131
	C0.484,0.772,0.774,0.48,1.133,0.479c0.001,0,0.001,0,0.002,0h9.13c0.359,0,0.65,0.291,0.65,0.65c0,0.001,0,0.001,0,0.002v7.826
	h2.61v2.609C13.523,12.647,12.646,13.522,11.565,13.522z M10.915,10.261v1.3c0,0.359,0.291,0.65,0.65,0.65s0.65-0.291,0.65-0.65
	v-1.3H10.915z M9.615,12.218V1.783h-7.83v9.782c-0.001,0.359,0.289,0.651,0.648,0.652c0.001,0,0.001,0,0.002,0L9.615,12.218
	L9.615,12.218z M3.085,3.74h5.22v1.3h-5.22V3.74z M3.085,6.349h5.22v1.3h-5.22V6.349z M3.085,8.958h3.26v1.3h-3.26V8.958z"/>
</svg>
