<?xml version="1.0" encoding="utf-8"?>
<!-- Generator: Adobe Illustrator 23.0.0, SVG Export Plug-In . SVG Version: 6.00 Build 0)  -->
<svg version="1.1" id="图层_1" xmlns="http://www.w3.org/2000/svg" xmlns:xlink="http://www.w3.org/1999/xlink" x="0px" y="0px"
	 viewBox="0 0 14 14" style="enable-background:new 0 0 14 14;" xml:space="preserve">
<style type="text/css">
	.st0{fill-rule:evenodd;clip-rule:evenodd;fill:#999999;}
</style>
<path id="客服二维码icon" class="st0" d="M9.667,10.33V9.67h-2v-2h2V9H11v1.33h-0.667v1.34H9V13H7.667v-2H9v-0.67H9.667z
	 M13,13h-2.667v-1.33h1.334v-1.34H13V13z M1,1h5.333v5.33H1V1z M2.333,2.33V5H5V2.33H2.333z M7.667,1H13v5.33H7.667V1z M9,2.33V5
	h2.667V2.33H9z M1,7.67h5.333V13H1V7.67L1,7.67z M2.333,9v2.67H5V9L2.333,9L2.333,9z M11,7.67h2V9h-2V7.67L11,7.67z M3,3h1.333v1.33
	H3V3L3,3z M3,9.67h1.333V11H3V9.67L3,9.67z M9.667,3H11v1.33H9.667V3L9.667,3z"/>
</svg>
