<?xml version="1.0" encoding="utf-8"?>
<!-- Generator: Adobe Illustrator 23.0.0, SVG Export Plug-In . SVG Version: 6.00 Build 0)  -->
<svg version="1.1" id="图层_1" xmlns="http://www.w3.org/2000/svg" xmlns:xlink="http://www.w3.org/1999/xlink" x="0px" y="0px"
	 viewBox="0 0 14 14" style="enable-background:new 0 0 14 14;" xml:space="preserve">
<style type="text/css">
	.st0{fill-rule:evenodd;clip-rule:evenodd;fill:#333333;}
</style>
<path id="购物车" class="st0" d="M12.66,9.333v-8h1.35V0h-2.03c-0.371-0.002-0.675,0.296-0.68,0.667v8H2.9L1.54,3.334h8.41V2
	H0.68C0.309,1.995,0.005,2.291,0,2.662c0,0.002,0,0.003,0,0.005c0.002,0.055,0.008,0.109,0.02,0.162l1.69,6.667
	c0.082,0.296,0.353,0.501,0.66,0.5h9.61C12.35,9.998,12.652,9.703,12.66,9.333z M11.3,14c0.736-0.009,1.325-0.614,1.316-1.35
	s-0.614-1.325-1.35-1.316c-0.729,0.009-1.316,0.603-1.316,1.333C9.958,13.406,10.561,14.001,11.3,14z M3.19,14
	c0.736-0.009,1.325-0.614,1.316-1.35s-0.614-1.325-1.35-1.316c-0.729,0.009-1.316,0.603-1.316,1.333
	c0.003,0.74,0.605,1.336,1.345,1.333C3.187,14,3.188,14,3.19,14L3.19,14z"/>
</svg>
