<?xml version="1.0" encoding="utf-8"?>
<!-- Generator: Adobe Illustrator 23.0.0, SVG Export Plug-In . SVG Version: 6.00 Build 0)  -->
<svg version="1.1" id="图层_1" xmlns="http://www.w3.org/2000/svg" xmlns:xlink="http://www.w3.org/1999/xlink" x="0px" y="0px"
	 viewBox="0 0 16 16" style="enable-background:new 0 0 16 16;" xml:space="preserve">
<style type="text/css">
	.st0{fill-rule:evenodd;clip-rule:evenodd;fill:#FFA940;}
</style>
<path id="信息" class="st0" d="M15.389,4.94C14.162,1.942,11.239-0.011,8,0C5.877-0.013,3.838,0.831,2.344,2.34
	c-2.301,2.303-2.979,5.77-1.715,8.77c0.812,1.917,2.339,3.441,4.257,4.25c4.066,1.721,8.758-0.181,10.479-4.247
	C16.199,9.141,16.207,6.918,15.389,4.94z M8.561,12.55c-0.143,0.156-0.344,0.247-0.556,0.25c-0.215,0.002-0.421-0.089-0.564-0.25
	C7.27,12.363,7.183,12.113,7.2,11.86c-0.007-0.241,0.075-0.476,0.23-0.66c0.137-0.172,0.345-0.271,0.564-0.27
	c0.221-0.001,0.43,0.098,0.569,0.27c0.316,0.394,0.316,0.956,0,1.35l0,0H8.561z M8.761,5.48L8.533,8.56
	C8.523,8.847,8.47,9.13,8.374,9.4c-0.053,0.176-0.217,0.295-0.4,0.29c-0.181,0.008-0.346-0.107-0.4-0.28
	C7.482,9.129,7.429,8.836,7.416,8.54l-0.17-2.99c-0.032-0.58-0.047-1-0.047-1.25C7.18,4.012,7.261,3.725,7.429,3.49
	c0.142-0.191,0.369-0.3,0.607-0.29c0.263-0.027,0.511,0.125,0.608,0.37c0.118,0.344,0.17,0.707,0.154,1.07
	C8.798,4.907,8.786,5.187,8.761,5.48L8.761,5.48L8.761,5.48z"/>
</svg>
